<svg width="32" height="32" viewBox="0 0 32 32" fill="none" xmlns="http://www.w3.org/2000/svg">
<rect width="32" height="32" rx="16" fill="white"/>
<path d="M16.0719 15.4894C16.5191 15.5601 16.9252 15.7425 17.2901 16.0367C17.6667 16.331 17.961 16.6959 18.1729 17.1314C18.3965 17.5669 18.5083 18.0318 18.5083 18.5261C18.5083 19.1499 18.3494 19.7149 18.0316 20.221C17.7138 20.7154 17.2489 21.1097 16.6369 21.4039C16.0366 21.6864 15.3245 21.8276 14.5006 21.8276H9.91023V9.52198H14.324C15.1597 9.52198 15.8718 9.66322 16.4603 9.94571C17.0488 10.2164 17.4902 10.5872 17.7844 11.058C18.0787 11.5288 18.2258 12.0584 18.2258 12.6469C18.2258 13.3767 18.0257 13.9829 17.6255 14.4654C17.2371 14.9362 16.7192 15.2776 16.0719 15.4894ZM11.5169 14.8362H14.2181C14.9714 14.8362 15.554 14.6596 15.966 14.3065C16.3779 13.9534 16.5839 13.465 16.5839 12.8412C16.5839 12.2173 16.3779 11.7289 15.966 11.3758C15.554 11.0227 14.9596 10.8461 14.1828 10.8461H11.5169V14.8362ZM14.3593 20.5035C15.1597 20.5035 15.7835 20.3152 16.2308 19.9385C16.678 19.5619 16.9017 19.0381 16.9017 18.3672C16.9017 17.6846 16.6663 17.149 16.1955 16.7606C15.7247 16.3604 15.095 16.1603 14.3064 16.1603H11.5169V20.5035H14.3593Z" fill="black"/>
<path d="M21.2498 21.9336C20.9438 21.9336 20.6849 21.8276 20.473 21.6158C20.2611 21.4039 20.1552 21.145 20.1552 20.8389C20.1552 20.5329 20.2611 20.274 20.473 20.0621C20.6849 19.8503 20.9438 19.7443 21.2498 19.7443C21.5441 19.7443 21.7912 19.8503 21.9913 20.0621C22.2032 20.274 22.3091 20.5329 22.3091 20.8389C22.3091 21.145 22.2032 21.4039 21.9913 21.6158C21.7912 21.8276 21.5441 21.9336 21.2498 21.9336Z" fill="#FF7C33"/>
</svg>
