<svg width="102" height="59" viewBox="0 0 102 59" fill="none" xmlns="http://www.w3.org/2000/svg">
<path d="M10.2748 44.9187V14.3732H21.4608C23.6285 14.3732 25.4232 14.7312 26.8451 15.4471C28.267 16.1531 29.3309 17.1126 30.0368 18.3257C30.7428 19.5288 31.0958 20.886 31.0958 22.3974C31.0958 23.6701 30.8621 24.744 30.3948 25.619C29.9275 26.484 29.301 27.1801 28.5155 27.7071C27.74 28.2241 26.8849 28.6019 25.9502 28.8406V29.1389C26.9644 29.1886 27.9537 29.5167 28.9182 30.1232C29.8927 30.7198 30.6981 31.57 31.3344 32.6737C31.9708 33.7774 32.289 35.1197 32.289 36.7007C32.289 38.2617 31.9211 39.6637 31.1853 40.9066C30.4594 42.1396 29.3358 43.119 27.8145 43.8448C26.2932 44.5607 24.3493 44.9187 21.9829 44.9187H10.2748ZM14.8834 40.9663H21.5354C23.7428 40.9663 25.3238 40.5387 26.2783 39.6836C27.2329 38.8285 27.7101 37.7596 27.7101 36.4769C27.7101 35.5125 27.4665 34.6275 26.9793 33.8221C26.4921 33.0167 25.7961 32.3754 24.8912 31.8981C23.9964 31.4208 22.9324 31.1822 21.6995 31.1822H14.8834V40.9663ZM14.8834 27.5877H21.0582C22.0922 27.5877 23.0219 27.3889 23.8472 26.9911C24.6824 26.5934 25.3437 26.0366 25.8309 25.3207C26.328 24.5948 26.5766 23.7397 26.5766 22.7553C26.5766 21.4926 26.1341 20.4336 25.2492 19.5785C24.3643 18.7234 23.007 18.2958 21.1775 18.2958H14.8834V27.5877ZM36.4733 44.9187V22.0096H40.7837V25.6488H41.0223C41.4399 24.4159 42.1757 23.4464 43.2297 22.7404C44.2936 22.0245 45.4967 21.6666 46.8391 21.6666C47.1175 21.6666 47.4456 21.6765 47.8234 21.6964C48.2112 21.7163 48.5145 21.7411 48.7332 21.771V26.0366C48.5542 25.9869 48.2361 25.9322 47.7787 25.8725C47.3213 25.8029 46.8639 25.7681 46.4065 25.7681C45.3525 25.7681 44.4129 25.9919 43.5876 26.4393C42.7723 26.8768 42.126 27.4883 41.6487 28.2738C41.1714 29.0494 40.9328 29.9343 40.9328 30.9286V44.9187H36.4733ZM51.6684 44.9187V22.0096H56.1279V44.9187H51.6684ZM53.9206 18.4748C53.145 18.4748 52.4788 18.2163 51.922 17.6992C51.3751 17.1723 51.1017 16.5458 51.1017 15.82C51.1017 15.0842 51.3751 14.4578 51.922 13.9407C52.4788 13.4137 53.145 13.1502 53.9206 13.1502C54.6961 13.1502 55.3573 13.4137 55.9042 13.9407C56.461 14.4578 56.7394 15.0842 56.7394 15.82C56.7394 16.5458 56.461 17.1723 55.9042 17.6992C55.3573 18.2163 54.6961 18.4748 53.9206 18.4748ZM76.67 53.5096V41.3541H76.4016C76.1331 41.8413 75.7453 42.3981 75.2382 43.0245C74.7411 43.6509 74.055 44.1978 73.18 44.6652C72.305 45.1325 71.1714 45.3661 69.7794 45.3661C67.93 45.3661 66.2794 44.8938 64.8277 43.9492C63.3859 42.9947 62.2524 41.6375 61.4271 39.8775C60.6118 38.1076 60.2041 35.9848 60.2041 33.5089C60.2041 31.033 60.6168 28.9151 61.442 27.1552C62.2773 25.3953 63.4207 24.048 64.8724 23.1133C66.3241 22.1786 67.9697 21.7113 69.8092 21.7113C71.2311 21.7113 72.3746 21.95 73.2396 22.4272C74.1146 22.8946 74.7908 23.4414 75.268 24.0678C75.7553 24.6943 76.1331 25.2461 76.4016 25.7234H76.7744V22.0096H81.1295V53.5096H76.67ZM70.7638 41.5629C72.0464 41.5629 73.1303 41.2248 74.0152 40.5487C74.9101 39.8626 75.5862 38.913 76.0436 37.7C76.5109 36.4869 76.7446 35.075 76.7446 33.4642C76.7446 31.8732 76.5159 30.4812 76.0585 29.288C75.6011 28.0948 74.93 27.1651 74.045 26.499C73.1601 25.8328 72.0663 25.4997 70.7638 25.4997C69.4214 25.4997 68.3028 25.8477 67.408 26.5437C66.5131 27.2397 65.8369 28.1893 65.3795 29.3924C64.9321 30.5955 64.7084 31.9528 64.7084 33.4642C64.7084 34.9954 64.9371 36.3725 65.3945 37.5955C65.8518 38.8186 66.528 39.788 67.4229 40.5039C68.3277 41.2099 69.4413 41.5629 70.7638 41.5629Z" fill="black"/>
<path d="M89.1395 45.2021C88.3242 45.2021 87.6232 44.9137 87.0365 44.337C86.4499 43.7504 86.1565 43.0444 86.1565 42.2191C86.1565 41.4038 86.4499 40.7078 87.0365 40.1311C87.6232 39.5444 88.3242 39.2511 89.1395 39.2511C89.9548 39.2511 90.6558 39.5444 91.2425 40.1311C91.8291 40.7078 92.1224 41.4038 92.1224 42.2191C92.1224 42.766 91.9832 43.2681 91.7048 43.7255C91.4364 44.173 91.0784 44.5309 90.631 44.7994C90.1835 45.0678 89.6864 45.2021 89.1395 45.2021Z" fill="#FFA825"/>
</svg>
