<svg width="24" height="24" viewBox="0 0 24 24" fill="none" xmlns="http://www.w3.org/2000/svg">
<path d="M16 13C15.2333 12.3 14.4875 11.6125 13.7625 10.9375C13.0375 10.2625 12.3958 9.6 11.8375 8.95C11.2792 8.3 10.8333 7.67083 10.5 7.0625C10.1667 6.45417 10 5.86667 10 5.3C10 4.36667 10.3167 3.58333 10.95 2.95C11.5833 2.31667 12.3667 2 13.3 2C13.8333 2 14.3333 2.1125 14.8 2.3375C15.2667 2.5625 15.6667 2.86667 16 3.25C16.3333 2.86667 16.7333 2.5625 17.2 2.3375C17.6667 2.1125 18.1667 2 18.7 2C19.6333 2 20.4167 2.31667 21.05 2.95C21.6833 3.58333 22 4.36667 22 5.3C22 5.86667 21.8333 6.45417 21.5 7.0625C21.1667 7.67083 20.7208 8.3 20.1625 8.95C19.6042 9.6 18.9667 10.2625 18.25 10.9375C17.5333 11.6125 16.7833 12.3 16 13ZM16 10.3C16.9833 9.36667 17.8958 8.4375 18.7375 7.5125C19.5792 6.5875 20 5.85 20 5.3C20 4.91667 19.8792 4.60417 19.6375 4.3625C19.3958 4.12083 19.0833 4 18.7 4C18.4667 4 18.2458 4.04583 18.0375 4.1375C17.8292 4.22917 17.65 4.36667 17.5 4.55L16 6.35L14.5 4.55C14.35 4.36667 14.1708 4.22917 13.9625 4.1375C13.7542 4.04583 13.5333 4 13.3 4C12.9167 4 12.6042 4.12083 12.3625 4.3625C12.1208 4.60417 12 4.91667 12 5.3C12 5.85 12.4208 6.5875 13.2625 7.5125C14.1042 8.4375 15.0167 9.36667 16 10.3ZM14 22.5L7 20.55V22H1V11H8.95L15.15 13.3C15.7 13.5 16.1458 13.85 16.4875 14.35C16.8292 14.85 17 15.4 17 16H19C19.8333 16 20.5417 16.275 21.125 16.825C21.7083 17.375 22 18.1 22 19V20L14 22.5ZM3 20H5V13H3V20ZM13.95 20.4L19.9 18.55C19.85 18.3667 19.7375 18.2292 19.5625 18.1375C19.3875 18.0458 19.2 18 19 18H14.2C13.6833 18 13.2167 17.9667 12.8 17.9C12.3833 17.8333 11.9333 17.7167 11.45 17.55L9.725 16.95L10.3 15.05L12.3 15.7C12.6 15.8 12.95 15.875 13.35 15.925C13.75 15.975 14.3 16 15 16C15 15.8167 14.9458 15.6417 14.8375 15.475C14.7292 15.3083 14.6 15.2 14.45 15.15L8.6 13H7V18.5L13.95 20.4Z" fill="black"/>
</svg>
