<svg width="256" height="256" viewBox="0 0 256 256" fill="none" xmlns="http://www.w3.org/2000/svg">
<rect width="256" height="256" rx="128" fill="white"/>
<path d="M128.583 126.915C132.161 127.48 135.41 128.939 138.329 131.293C141.342 133.647 143.696 136.566 145.391 140.05C147.18 143.534 148.074 147.254 148.074 151.208C148.074 156.199 146.803 160.719 144.261 164.768C141.718 168.722 137.999 171.877 133.103 174.231C128.3 176.491 122.604 177.621 116.012 177.621H79.2896V79.1754H114.6C121.285 79.1754 126.982 80.3053 131.69 82.5652C136.398 84.7309 139.929 87.6969 142.283 91.4634C144.637 95.2298 145.814 99.467 145.814 104.175C145.814 110.013 144.214 114.862 141.012 118.723C137.905 122.489 133.762 125.22 128.583 126.915ZM92.1426 121.689H113.753C119.779 121.689 124.44 120.277 127.735 117.452C131.031 114.627 132.679 110.719 132.679 105.729C132.679 100.738 131.031 96.8305 127.735 94.0057C124.44 91.1809 119.685 89.7685 113.47 89.7685H92.1426V121.689ZM114.882 167.028C121.285 167.028 126.276 165.521 129.854 162.508C133.432 159.495 135.221 155.304 135.221 149.937C135.221 144.476 133.338 140.192 129.572 137.084C125.805 133.883 120.768 132.282 114.459 132.282H92.1426V167.028H114.882Z" fill="black"/>
<path d="M170.006 178.468C167.558 178.468 165.487 177.621 163.792 175.926C162.097 174.231 161.249 172.159 161.249 169.711C161.249 167.263 162.097 165.191 163.792 163.496C165.487 161.802 167.558 160.954 170.006 160.954C172.36 160.954 174.338 161.802 175.938 163.496C177.633 165.191 178.481 167.263 178.481 169.711C178.481 172.159 177.633 174.231 175.938 175.926C174.338 177.621 172.36 178.468 170.006 178.468Z" fill="#FF7C33"/>
</svg>
